<?xml version="1.0" standalone="no"?><svg xmlns="http://www.w3.org/2000/svg" viewBox="0 0 1440 320"><path fill="#0099ff" fill-opacity="1" d="M0,160L30,160C60,160,120,160,180,170.7C240,181,300,203,360,208C420,213,480,203,540,186.7C600,171,660,149,720,160C780,171,840,213,900,208C960,203,1020,149,1080,133.3C1140,117,1200,139,1260,170.7C1320,203,1380,245,1410,266.7L1440,288L1440,320L1410,320C1380,320,1320,320,1260,320C1200,320,1140,320,1080,320C1020,320,960,320,900,320C840,320,780,320,720,320C660,320,600,320,540,320C480,320,420,320,360,320C300,320,240,320,180,320C120,320,60,320,30,320L0,320Z"></path></svg>